<?xml version="1.0" encoding="utf-8"?>
<!-- Svg Vector Icons : http://www.onlinewebfonts.com/icon -->
<!DOCTYPE svg PUBLIC "-//W3C//DTD SVG 1.1//EN" "http://www.w3.org/Graphics/SVG/1.1/DTD/svg11.dtd">
<svg version="1.1" xmlns="http://www.w3.org/2000/svg" xmlns:xlink="http://www.w3.org/1999/xlink" x="0px" y="0px" viewBox="0 0 1000 1000" enable-background="new 0 0 1000 1000" xml:space="preserve">
<metadata> Svg Vector Icons : http://www.onlinewebfonts.com/icon </metadata>
<g><path d="M876.5,637.9c-2.9,0-5.5-0.9-8.3-1.1c47.8-31.6,87.3-96.6,87.3-172.4c0-82.9-45.8-153-100.9-180.4c7.2-1.6,14.4-2.9,21.9-2.9c74.1,0,113.5,79.9,113.5,178.4C990,558,950.6,637.9,876.5,637.9z"/><path d="M306.2,317.9c0,0,82.2-12.2,175.7-65C613.8,178.4,686,129,686,129v664.6c0,0-204.2-218.8-320-226.8c-115.9-8-236.9-4.2-236.9-4.2S10,567.2,10,463.4c0-103.9,59.1-143.9,116.4-143.9C183.7,319.5,306.2,317.9,306.2,317.9z"/><path d="M770,588.2c-2,0-3.8-0.6-5.7-0.8c32.8-21.7,55.5-66.2,55.5-118.3c0-56.8-27.1-105-64.9-123.8c4.9-1.1,9.9-2,15.1-2c50.8,0,92,54.8,92,122.4C862,533.3,820.8,588.2,770,588.2z"/><path d="M165,629.1h171.8c0,0,83.9,184.8,89.2,206.2c5.3,21.3-70.7,40.1-103.5,34.8C246.6,857.8,165,629.1,165,629.1z"/></g>
</svg>